<?xml version="1.0" encoding="utf-8"?>
<!-- Generator: Adobe Illustrator 24.0.2, SVG Export Plug-In . SVG Version: 6.00 Build 0)  -->
<svg version="1.1" id="Layer_1" xmlns="http://www.w3.org/2000/svg" xmlns:xlink="http://www.w3.org/1999/xlink" x="0px" y="0px"
	 viewBox="0 0 100 100" style="enable-background:new 0 0 100 100;" xml:space="preserve">
<style type="text/css">
	.st0{fill:#FAC312;}
	.st1{fill:#545758;}
</style>
<g>
	<path class="st0" d="M84.1,69.4c4.3-6.1,6.8-13.5,6.5-21.1c-0.4-8.4-4-16.3-9.4-22.5c-5.8-6.6-13.5-11.1-21.9-13
		c-4.4-1-9-1.3-13.6-0.7c-3.4,0.4-6.9,1.2-10.5,2.5c-8.8,3.3-16.3,8.9-20.8,16.6c-6.7,11.4-6.1,25.3,1.3,36.2
		c7.5,11,20.1,17.7,32.9,18.4c11.5,0.6,23.4-3.5,31.6-11.9C81.7,72.5,83,71,84.1,69.4z M50.3,74.5C34.7,74.6,22.1,63.3,22,49
		C22,34.8,34.4,23.4,50.1,23.4c15.7,0,28.2,11.3,28.2,25.5C78.4,63,65.8,74.5,50.3,74.5z"/>
	<g>
		<rect x="48.4" y="14.1" class="st1" width="3.6" height="7.5"/>
		<polygon class="st1" points="67,26.4 63.9,24.5 67.5,18 70.7,19.9 		"/>
		<polygon class="st1" points="77.4,38.5 75.8,35.1 82.2,31.7 83.9,35.1 		"/>
		
			<rect x="82.6" y="45.1" transform="matrix(-1.836970e-16 1 -1 -1.836970e-16 133.244 -35.7199)" class="st1" width="3.8" height="7.3"/>
		<polygon class="st1" points="76.8,62.7 78.6,59.4 84.9,63.2 83.1,66.4 		"/>
		<polygon class="st1" points="66.4,72.8 69.2,70.4 73.8,76.2 71,78.6 		"/>
		<polygon class="st1" points="34.5,72.4 37.8,74 34.6,80.8 31.4,79.2 		"/>
		<polygon class="st1" points="24.6,62.9 27.2,65.6 22,70.9 19.4,68.2 		"/>
		
			<rect x="13.9" y="45.1" transform="matrix(-1.836970e-16 1 -1 -1.836970e-16 64.5724 32.9516)" class="st1" width="3.8" height="7.3"/>
		<polygon class="st1" points="16.3,32.8 18.1,29.5 24.4,33.3 22.6,36.5 		"/>
		<polygon class="st1" points="29.2,19.9 32,17.5 36.6,23.4 33.8,25.7 		"/>
		<rect x="48.4" y="76.6" class="st1" width="3.6" height="7.5"/>
	</g>
	<ellipse class="st1" cx="50.2" cy="48.9" rx="28.1" ry="25.6"/>
	<path class="st0" d="M49.1,41.7c-1.3,0.7-2.5,1.3-3.8,2c-1.5,0.8-2.8,2.2-3.2,4C42.1,48,42,48.4,42,48.8c0,4.1,3.2,7.4,7.2,7.4
		c4.3,0,6.1-5.1,7.1-8.7c0.7-2.9,1.2-6,1.7-8.9c0-0.2,0.2-0.6,0.1-0.8c-0.1-0.3-0.1-0.3-0.5-0.2c-1,0.2-2,0.9-3,1.4
		c-1.1,0.5-2.2,1.1-3.3,1.6C50.6,41,49.8,41.3,49.1,41.7z"/>
</g>
</svg>
