<?xml version="1.0" encoding="utf-8"?>
<!-- Generator: Adobe Illustrator 24.0.2, SVG Export Plug-In . SVG Version: 6.00 Build 0)  -->
<svg version="1.1" id="Layer_1" xmlns="http://www.w3.org/2000/svg" xmlns:xlink="http://www.w3.org/1999/xlink" x="0px" y="0px"
	 viewBox="0 0 100 100" style="enable-background:new 0 0 100 100;" xml:space="preserve">
<style type="text/css">
	.st0{fill:#545758;}
	.st1{fill:#FAC312;}
</style>
<g>
	<g>
		<path class="st0" d="M67.9,77.9H29.4v-49h38.5l0,19.6c1,2.1,3.8,2,5.9,1.6V24c0-1.2-1-2.2-2.2-2.2h-9.9v-2.1
			c0-1.1-0.9-1.9-1.9-1.9h-1v-3.1c0-2-1.6-3.7-3.7-3.7H41.8c-2,0-3.7,1.6-3.7,3.7v3.1h-1c-1.1,0-1.9,0.9-1.9,1.9v2.1h-9.9
			c-1.2,0-2.2,1-2.2,2.2v58.7c0,1.2,1,2.2,2.2,2.2h46.2c1.2,0,2.2-1,2.2-2.2l0.1-33.9c-2.1-0.3-4.1,0.7-5.9-0.3l-0.1,29.4H67.9z
			 M41.6,14.7c0-0.1,0.1-0.2,0.2-0.2h13.3c0.1,0,0.2,0.1,0.2,0.2v3.1H41.6V14.7z"/>
		<rect x="33.9" y="35.6" class="st1" width="29.8" height="37.2"/>
		<path class="st0" d="M32.2,31.7v43.5h32.9V31.7H32.2z M37.6,40.4h21.7c1,0,1.7,0.8,1.7,1.7c0,1-0.8,1.7-1.7,1.7H37.6
			c-1,0-1.7-0.8-1.7-1.7C35.9,41.2,36.6,40.4,37.6,40.4z M37.6,51.8h21.7c1,0,1.7,0.8,1.7,1.7c0,1-0.8,1.7-1.7,1.7H37.6
			c-1,0-1.7-0.8-1.7-1.7C35.9,52.5,36.6,51.8,37.6,51.8z M59.5,68H37.8c-1,0-1.7-0.8-1.7-1.7c0-0.9,0.7-1.7,1.7-1.7h21.7
			c1,0,1.7,0.8,1.7,1.7C61.2,67.3,60.4,68,59.5,68z"/>
	</g>
</g>
</svg>
