<?xml version="1.0" encoding="utf-8"?>
<!-- Generator: Adobe Illustrator 24.0.2, SVG Export Plug-In . SVG Version: 6.00 Build 0)  -->
<svg version="1.1" id="Layer_1" xmlns="http://www.w3.org/2000/svg" xmlns:xlink="http://www.w3.org/1999/xlink" x="0px" y="0px"
	 viewBox="0 0 100 100" style="enable-background:new 0 0 100 100;" xml:space="preserve">
<style type="text/css">
	.st0{fill:#FAC312;}
	.st1{fill:#545758;}
</style>
<g>
	<path class="st0" d="M34.7,13c22.9-2.5,41.5,20.5,29.6,39.6c-0.3,0.5-0.6,1-1,1.7c2.8,0.2,4.8,1.5,6.5,3.1
		c6.1,5.4,12.3,10.8,18.5,16.2c1.7,1.5,3.2,3,3.9,5c0,0.9,0,1.9,0,2.8c-1.1,2.9-3.2,4.8-6.5,5.7c-1.1,0-2.2,0-3.2,0
		c-1.6-0.9-3.4-1.5-4.7-2.6c-6.2-5.3-12.3-10.7-18.4-16.1c-2.1-1.9-4.4-3.7-4.5-6.7C54,62,53.5,62.2,53,62.5
		C27.1,75.2-2.5,49.6,11.4,26.7c3.4-5.5,9-9.5,15.5-11.9C29.5,13.8,32.1,13.2,34.7,13z M38.1,57.8c11.5,0,20.8-8.3,20.8-18.4
		c0-10.2-9.3-18.4-21-18.3c-11.7,0-20.9,8.2-20.8,18.4C17.1,49.7,26.4,57.8,38.1,57.8z"/>
	<path class="st1" d="M38.1,57.8c-11.7,0-21-8.1-21-18.3c0-10.2,9.2-18.4,20.8-18.4c11.6,0,20.9,8.1,21,18.3
		C58.9,49.5,49.6,57.8,38.1,57.8z"/>
</g>
</svg>
